<svg width="508" height="508" viewBox="0 0 508 508" fill="none" xmlns="http://www.w3.org/2000/svg">
<path d="M508 250C508 313.911 468.351 359.283 428.895 403.483C383.112 454.772 332.161 500 258 500C119.929 500 8 388.072 8 250C8 111.929 119.929 0.000488281 258 0.000488281C396.071 0.000488281 508 111.929 508 250Z" fill="white"/>
<path d="M476.69 344.106L369.795 457.04L387.309 363.129L476.69 344.106Z" fill="#D9D9D9"/>
<path d="M258 157.219L230.359 205.094L220.638 221.931H295.361L258 157.219Z" fill="#FF8D28"/>
<path d="M123.912 188.861C133.099 214.694 138.5 286.57 140.257 325.59C140.281 326.124 140.696 326.523 141.231 326.523H397.057C385.579 326.523 391.957 232.049 396.8 182.34C396.889 181.422 395.792 180.913 395.117 181.542L354.406 219.501C353.869 220.002 352.993 219.773 352.771 219.073L329.468 145.742C329.228 144.987 328.261 144.783 327.76 145.397C306.587 171.344 273.126 220.579 257.83 220.579C242.709 220.579 203.135 172.457 188.963 146.29C188.527 145.485 187.317 145.62 187.078 146.504L167.478 219.067C167.287 219.773 166.429 220.042 165.87 219.573L126.698 186.701C125.766 185.919 123.505 187.715 123.912 188.861Z" fill="#FFCC00" stroke="#FF8D28" stroke-width="10"/>
<path d="M266.75 288.338C307.783 288.338 344.725 293.889 371.235 302.726C384.516 307.153 394.903 312.314 401.867 317.803C408.888 323.336 411.75 328.623 411.75 333.338C411.75 338.053 408.888 343.34 401.867 348.873C394.903 354.361 384.516 359.523 371.235 363.95C344.725 372.787 307.783 378.338 266.75 378.338C225.717 378.338 188.775 372.787 162.265 363.95C148.984 359.523 138.597 354.361 131.633 348.873C124.612 343.34 121.75 338.053 121.75 333.338C121.75 328.623 124.612 323.336 131.633 317.803C138.597 312.314 148.984 307.153 162.265 302.726C188.775 293.889 225.717 288.338 266.75 288.338Z" fill="#FFCC00" stroke="#FF8D28" stroke-width="10"/>
<path d="M266.75 319.12C300.909 319.12 331.663 322.687 353.729 328.362C364.799 331.21 373.4 334.517 379.114 337.992C385.124 341.647 386.517 344.57 386.518 346.212C386.518 347.853 385.124 350.777 379.114 354.432C373.4 357.907 364.799 361.215 353.729 364.062C331.663 369.738 300.909 373.305 266.75 373.305C232.591 373.305 201.837 369.738 179.771 364.062C168.701 361.215 160.099 357.907 154.385 354.432C148.375 350.777 146.982 347.853 146.982 346.212C146.983 344.57 148.375 341.647 154.385 337.992C160.099 334.517 168.701 331.21 179.771 328.362C201.837 322.687 232.591 319.12 266.75 319.12Z" fill="#FF8D28" stroke="#FF8D28" stroke-width="10"/>
<circle cx="118.395" cy="172.075" r="17.5" fill="#FF8D28"/>
<circle cx="187.047" cy="126.494" r="17.5" fill="#FF8D28"/>
<circle cx="258" cy="154.575" r="17.5" fill="#FF8D28"/>
<circle cx="329.265" cy="126.494" r="17.5" fill="#FF8D28"/>
<circle cx="397.605" cy="172.075" r="17.5" fill="#FF8D28"/>
<g filter="url(#filter0_d_31_138)">
<path d="M258 5C393.31 5 503 114.69 503 250C503 276.563 498.775 302.13 490.963 326.069C488.694 333.022 483.634 337.559 476.125 340.834C468.447 344.183 458.727 345.978 447.957 347.577C437.439 349.139 425.888 350.515 415.567 353.167C405.227 355.824 395.292 359.943 388.221 367.542C381.296 374.983 377.856 385.283 375.816 395.952C373.774 406.638 372.996 418.588 371.987 429.585C370.957 440.82 369.687 451.091 366.821 459.347C363.992 467.496 359.849 473.003 353.456 475.71C324.127 488.129 291.872 495 258 495C122.69 495 13 385.31 13 250C13 114.69 122.69 5 258 5Z" stroke="#8E8E93" stroke-width="10" shape-rendering="crispEdges"/>
</g>
<path d="M359.968 471.041L365.753 464.759L484.843 335.458" stroke="#8E8E93" stroke-width="10"/>
<defs>
<filter id="filter0_d_31_138" x="0" y="0" width="508" height="508" filterUnits="userSpaceOnUse" color-interpolation-filters="sRGB">
<feFlood flood-opacity="0" result="BackgroundImageFix"/>
<feColorMatrix in="SourceAlpha" type="matrix" values="0 0 0 0 0 0 0 0 0 0 0 0 0 0 0 0 0 0 127 0" result="hardAlpha"/>
<feOffset dx="-4" dy="4"/>
<feGaussianBlur stdDeviation="2"/>
<feComposite in2="hardAlpha" operator="out"/>
<feColorMatrix type="matrix" values="0 0 0 0 0 0 0 0 0 0 0 0 0 0 0 0 0 0 0.25 0"/>
<feBlend mode="normal" in2="BackgroundImageFix" result="effect1_dropShadow_31_138"/>
<feBlend mode="normal" in="SourceGraphic" in2="effect1_dropShadow_31_138" result="shape"/>
</filter>
</defs>
</svg>
